<svg width="200" height="42" viewBox="0 0 200 42" fill="none" xmlns="http://www.w3.org/2000/svg">
<g clip-path="url(#clip0_2529_1056)">
<mask id="mask0_2529_1056" style="mask-type:luminance" maskUnits="userSpaceOnUse" x="0" y="0" width="200" height="42">
<path d="M0 0H200V42H0V0Z" fill="white"/>
</mask>
<g mask="url(#mask0_2529_1056)">
<path opacity="0.32" fill-rule="evenodd" clip-rule="evenodd" d="M18.789 38.4327C29.166 38.4327 37.579 30.0007 37.579 19.5987C37.579 9.19567 29.166 0.763672 18.789 0.763672C8.412 0.763672 0 9.19567 0 19.5987C0 24.1117 1.584 28.2547 4.225 31.4987V19.4147C4.259 16.7617 4.9 14.3047 6.184 12.1027C7.42491 9.95196 9.21318 8.16818 11.367 6.93267C13.573 5.66067 16.03 5.04267 18.68 5.04267C21.383 5.04267 23.877 5.66767 26.104 6.95867C28.2711 8.20501 30.0678 10.0052 31.31 12.1747C32.598 14.4087 33.22 16.9097 33.22 19.6197C33.22 22.2947 32.616 24.7707 31.366 26.9947C30.136 29.1827 28.445 30.9397 26.309 32.2197C24.137 33.5257 21.702 34.1527 19.072 34.1527C16.776 34.1527 14.628 33.6597 12.676 32.6367L12.674 32.6357C12.544 32.5677 12.416 32.4977 12.29 32.4267V37.2767C14.3707 38.0441 16.5713 38.4356 18.789 38.4327ZM9.939 36.2177V27.2417C10.5857 28.1626 11.3801 28.9705 12.29 29.6327C12.747 29.9677 13.238 30.2727 13.764 30.5477C14.449 30.9077 15.168 31.1887 15.921 31.3927C16.911 31.6627 17.962 31.7967 19.072 31.7967C21.317 31.7967 23.326 31.2657 25.102 30.1977C26.0901 29.609 26.9847 28.8759 27.756 28.0227C28.3564 27.3551 28.8803 26.6226 29.318 25.8387C30.352 23.9987 30.87 21.9267 30.87 19.6197C30.87 17.2837 30.338 15.1977 29.275 13.3547C28.2385 11.5424 26.7376 10.0391 24.927 8.99967C23.092 7.93367 21.01 7.39967 18.68 7.39967C16.407 7.39967 14.36 7.92467 12.539 8.97567C10.7402 10.0059 9.24736 11.4953 8.213 13.2917C7.151 15.1137 6.604 17.1657 6.576 19.4447V33.9117C7.606 34.7957 8.734 35.5707 9.939 36.2177ZM14.179 11.6697C12.8561 12.4548 11.7693 13.582 11.033 14.9327C10.274 16.3047 9.896 17.8657 9.896 19.6197C9.896 21.3417 10.274 22.8967 11.033 24.2827C11.7602 25.6408 12.8491 26.7711 14.179 27.5487C15.519 28.3357 17.019 28.7317 18.679 28.7317C20.369 28.7317 21.884 28.3357 23.223 27.5487C24.5561 26.7674 25.6518 25.6385 26.393 24.2827C27.163 22.8967 27.549 21.3417 27.549 19.6197C27.549 17.8657 27.163 16.3047 26.392 14.9327C25.6419 13.5849 24.5486 12.4595 23.223 11.6707C21.883 10.8667 20.369 10.4647 18.68 10.4647C17.02 10.4647 15.52 10.8667 14.18 11.6707L14.179 11.6697Z" fill="white"/>
<path d="M26.3919 24.284C25.6509 25.6396 24.5556 26.7684 23.2229 27.55C21.8829 28.336 20.3689 28.732 18.6799 28.732C17.0199 28.732 15.5199 28.336 14.1799 27.55C12.8497 26.7725 11.7605 25.6421 11.0329 24.284C10.2739 22.898 9.89593 21.342 9.89593 19.62C9.89593 17.867 10.2739 16.305 11.0329 14.934C11.7693 13.5833 12.8561 12.4561 14.1789 11.671C15.5189 10.867 17.0189 10.465 18.6789 10.465C20.3689 10.465 21.8839 10.867 23.2229 11.671C24.5489 12.46 25.6426 13.5857 26.3929 14.934C27.1629 16.305 27.5489 17.867 27.5489 19.62C27.5489 21.342 27.1629 22.897 26.3919 24.284ZM29.2749 13.355C28.2384 11.5427 26.7376 10.0394 24.9269 8.99998C23.0919 7.93398 21.0099 7.39998 18.6799 7.39998C16.4069 7.39998 14.3599 7.92598 12.5389 8.97598C10.7402 10.0062 9.24728 11.4956 8.21293 13.292C7.15093 15.114 6.60393 17.166 6.57593 19.445V33.995C7.611 34.8726 8.73866 35.6348 9.93893 36.268V27.242C10.9009 28.614 12.1749 29.716 13.7639 30.548C15.3499 31.381 17.1189 31.797 19.0719 31.797C21.3169 31.797 23.3259 31.266 25.1019 30.198C26.8789 29.134 28.2849 27.678 29.3179 25.839C30.3519 23.999 30.8699 21.927 30.8699 19.62C30.8699 17.284 30.3379 15.198 29.2749 13.355ZM54.8889 31.797C52.5289 31.797 50.4389 31.279 48.6189 30.242C46.8199 29.2275 45.3376 27.7337 44.3369 25.927C43.3019 24.087 42.7849 21.985 42.7849 19.62C42.7849 17.226 43.2729 15.116 44.2489 13.29C45.2249 11.466 46.5719 10.028 48.2909 8.97598C50.0099 7.92498 51.9909 7.39898 54.2339 7.39898C56.4469 7.39898 58.3769 7.90298 60.0239 8.90998C61.6689 9.91798 62.9439 11.312 63.8469 13.094C64.7489 14.875 65.2009 16.904 65.2009 19.182C65.2009 19.65 65.0549 20.022 64.7649 20.299C64.4729 20.577 64.0939 20.715 63.6279 20.715H45.0579V17.912H63.9779L62.0979 19.269C62.1279 17.577 61.8219 16.058 61.1809 14.714C60.5399 13.371 59.6309 12.32 58.4509 11.56C57.2709 10.801 55.8649 10.422 54.2329 10.422C52.5729 10.422 51.1159 10.816 49.8629 11.604C48.6109 12.393 47.6429 13.481 46.9579 14.868C46.2729 16.255 45.9309 17.84 45.9309 19.62C45.9309 21.402 46.3169 22.978 47.0899 24.35C47.8346 25.696 48.9287 26.816 50.2569 27.592C51.5969 28.38 53.1409 28.775 54.8889 28.775C55.9681 28.7697 57.0387 28.5845 58.0569 28.227C59.1199 27.862 59.9719 27.402 60.6129 26.847C60.92 26.5892 61.3051 26.4426 61.7059 26.431C62.1129 26.417 62.4629 26.526 62.7539 26.76C63.1329 27.11 63.3289 27.49 63.3439 27.898C63.3589 28.308 63.1909 28.658 62.8419 28.95C61.8799 29.768 60.6569 30.446 59.1719 30.986C57.6859 31.527 56.2579 31.797 54.8889 31.797ZM80.8449 31.797C78.4849 31.797 76.3949 31.279 74.5749 30.242C72.7759 29.2275 71.2936 27.7337 70.2929 25.927C69.2579 24.087 68.7409 21.985 68.7409 19.62C68.7409 17.226 69.2289 15.116 70.2049 13.29C71.1809 11.466 72.5279 10.028 74.2469 8.97598C75.9649 7.92498 77.9459 7.39898 80.1889 7.39898C82.4029 7.39898 84.3329 7.90298 85.9789 8.90998C87.6249 9.91798 88.8989 11.312 89.8029 13.094C90.7049 14.875 91.1569 16.904 91.1569 19.182C91.1569 19.65 91.0109 20.022 90.7209 20.299C90.4289 20.577 90.0499 20.715 89.5839 20.715H71.0139V17.912H89.9339L88.0539 19.269C88.0839 17.577 87.7779 16.058 87.1369 14.714C86.4959 13.371 85.5859 12.32 84.4069 11.56C83.2269 10.801 81.8209 10.422 80.1889 10.422C78.5289 10.422 77.0719 10.816 75.8189 11.604C74.5669 12.393 73.5989 13.481 72.9139 14.868C72.2289 16.255 71.8869 17.84 71.8869 19.62C71.8869 21.402 72.2729 22.978 73.0449 24.35C73.7898 25.6961 74.8844 26.8162 76.2129 27.592C77.5529 28.38 79.0969 28.775 80.8449 28.775C81.924 28.7697 82.9947 28.5845 84.0129 28.227C85.0759 27.862 85.9279 27.402 86.5689 26.847C86.8757 26.5894 87.2605 26.4428 87.6609 26.431C88.0689 26.417 88.4189 26.526 88.7109 26.76C89.0889 27.11 89.2849 27.49 89.2999 27.898C89.3149 28.308 89.1469 28.658 88.7979 28.95C87.8359 29.768 86.6129 30.446 85.1279 30.986C83.6409 31.527 82.2139 31.797 80.8449 31.797ZM98.2359 16.817C98.3229 15.007 98.7959 13.387 99.6559 11.955C100.514 10.525 101.636 9.39998 103.02 8.58198C104.404 7.76498 105.94 7.35498 107.63 7.35498C108.97 7.35498 110.004 7.54598 110.733 7.92498C111.46 8.30498 111.738 8.85998 111.563 9.58898C111.446 10.028 111.249 10.319 110.973 10.466C110.696 10.612 110.361 10.67 109.968 10.64C109.575 10.612 109.13 10.582 108.635 10.553C107.003 10.407 105.555 10.575 104.287 11.057C103.02 11.539 102.015 12.277 101.272 13.269C100.53 14.262 100.158 15.444 100.158 16.817H98.2359ZM98.4979 31.578C97.9729 31.578 97.5649 31.432 97.2739 31.14C96.9829 30.849 96.8369 30.44 96.8369 29.913V9.28298C96.8369 8.75698 96.9829 8.34798 97.2739 8.05598C97.5649 7.76598 97.9739 7.61798 98.4979 7.61798C99.0219 7.61798 99.4299 7.76498 99.7209 8.05598C100.012 8.34798 100.158 8.75698 100.158 9.28298V29.913C100.158 30.439 100.012 30.849 99.7209 31.14C99.4299 31.432 99.0219 31.578 98.4979 31.578ZM125.196 31.797C123.477 31.797 121.773 31.505 120.083 30.92C118.394 30.337 117.025 29.461 115.976 28.293C115.655 27.943 115.524 27.548 115.583 27.11C115.641 26.672 115.859 26.293 116.238 25.971C116.646 25.68 117.068 25.562 117.506 25.621C117.942 25.68 118.306 25.869 118.598 26.191C119.297 27.008 120.222 27.636 121.372 28.074C122.523 28.512 123.798 28.731 125.196 28.731C127.351 28.731 128.91 28.358 129.871 27.614C130.833 26.869 131.328 25.971 131.357 24.92C131.357 23.869 130.861 23 129.871 22.314C128.881 21.628 127.25 21.094 124.978 20.714C122.035 20.248 119.879 19.43 118.51 18.262C117.141 17.095 116.457 15.707 116.457 14.101C116.457 12.611 116.85 11.371 117.636 10.378C118.423 9.38598 119.472 8.64098 120.783 8.14398C122.094 7.64798 123.535 7.39898 125.108 7.39898C127.06 7.39898 128.742 7.73498 130.155 8.40698C131.568 9.07898 132.711 9.98398 133.585 11.122C133.876 11.502 133.993 11.896 133.935 12.305C133.876 12.715 133.643 13.05 133.236 13.313C132.886 13.517 132.486 13.583 132.034 13.51C131.586 13.439 131.177 13.2141 130.877 12.874C130.148 12.028 129.303 11.407 128.342 11.013C127.381 10.618 126.273 10.422 125.021 10.422C123.419 10.422 122.137 10.75 121.176 11.407C120.214 12.065 119.734 12.889 119.734 13.882C119.734 14.554 119.915 15.137 120.28 15.634C120.644 16.131 121.27 16.569 122.159 16.948C123.047 17.328 124.293 17.648 125.895 17.912C128.08 18.262 129.806 18.781 131.073 19.467C132.34 20.153 133.243 20.956 133.782 21.876C134.321 22.796 134.59 23.796 134.59 24.876C134.59 26.249 134.19 27.454 133.389 28.49C132.587 29.527 131.48 30.337 130.068 30.92C128.655 31.505 127.031 31.797 125.196 31.797ZM159.932 9.80598L145.773 40.997C145.483 41.663 145.062 42 144.509 42C144.239 41.9908 143.974 41.9325 143.725 41.828C142.731 41.386 142.455 40.687 142.889 39.723L147.234 30.116L137.472 9.85198C137.268 9.41598 137.241 9.00698 137.386 8.62398C137.531 8.24798 137.821 7.95798 138.262 7.74698C138.696 7.54898 139.104 7.50898 139.486 7.64098C139.861 7.77298 140.151 8.05698 140.355 8.49198L148.873 26.5L157.003 8.53898C157.444 7.60198 158.141 7.34398 159.102 7.74698C160.096 8.15598 160.373 8.84198 159.932 9.80598ZM172.692 31.797C170.95 31.7932 169.222 31.4967 167.579 30.92C165.89 30.337 164.52 29.461 163.472 28.293C163.152 27.943 163.02 27.548 163.078 27.11C163.137 26.672 163.355 26.293 163.734 25.971C164.141 25.68 164.565 25.562 165.002 25.621C165.438 25.68 165.802 25.869 166.095 26.191C166.792 27.008 167.717 27.636 168.869 28.074C170.02 28.512 171.293 28.731 172.692 28.731C174.848 28.731 176.406 28.358 177.367 27.614C178.328 26.869 178.824 25.971 178.853 24.92C178.853 23.869 178.358 23 177.367 22.314C176.377 21.628 174.746 21.094 172.474 20.714C169.531 20.248 167.376 19.43 166.006 18.262C164.636 17.095 163.953 15.707 163.953 14.101C163.953 12.611 164.346 11.371 165.132 10.378C165.919 9.38598 166.967 8.64098 168.278 8.14398C169.589 7.64798 171.032 7.39898 172.605 7.39898C174.556 7.39898 176.238 7.73498 177.651 8.40698C179.063 9.07898 180.208 9.98398 181.081 11.122C181.373 11.502 181.489 11.896 181.43 12.305C181.373 12.715 181.14 13.05 180.732 13.313C180.382 13.517 179.982 13.583 179.531 13.51C179.082 13.4391 178.672 13.2143 178.371 12.874C177.644 12.028 176.799 11.407 175.838 11.013C174.877 10.618 173.77 10.422 172.517 10.422C170.914 10.422 169.633 10.75 168.672 11.407C167.711 12.065 167.23 12.889 167.23 13.882C167.23 14.554 167.411 15.137 167.776 15.634C168.14 16.131 168.767 16.569 169.654 16.948C170.543 17.328 171.789 17.648 173.391 17.912C175.576 18.262 177.302 18.781 178.568 19.467C179.836 20.153 180.738 20.956 181.278 21.876C181.817 22.796 182.086 23.796 182.086 24.876C182.086 26.249 181.686 27.454 180.884 28.49C180.083 29.527 178.976 30.337 177.564 30.92C176.15 31.505 174.528 31.797 172.692 31.797ZM200 29.911C200 30.413 199.829 30.809 199.48 31.119C199.125 31.422 198.69 31.581 198.164 31.581H197.248C195.702 31.581 194.326 31.211 193.122 30.485C191.916 29.758 190.927 28.7214 190.257 27.483C189.559 26.209 189.211 24.758 189.211 23.121V11.43H186.367C185.932 11.43 185.564 11.291 185.275 11.014C185.134 10.8826 185.023 10.7229 184.948 10.5454C184.873 10.3679 184.837 10.1766 184.841 9.98398C184.841 9.54898 184.985 9.19298 185.275 8.90898C185.564 8.63198 185.932 8.49298 186.367 8.49298H189.211V1.70298C189.211 1.20798 189.362 0.798977 189.665 0.475977C189.974 0.158977 190.376 0.000976562 190.869 0.000976562C191.364 0.000976562 191.771 0.158977 192.095 0.475977C192.411 0.798977 192.574 1.20798 192.574 1.70298V8.49298H197.511C197.946 8.49298 198.308 8.63198 198.605 8.90898C198.895 9.19298 199.039 9.54898 199.039 9.98498C199.039 10.394 198.895 10.737 198.605 11.014C198.309 11.2913 197.916 11.4408 197.511 11.43H192.574V23.12C192.574 24.612 193.009 25.832 193.884 26.783C194.761 27.733 195.88 28.201 197.248 28.201H198.427C198.895 28.201 199.269 28.366 199.565 28.683C199.856 29.006 200 29.416 200 29.911Z" fill="white"/>
</g>
</g>
<defs>
<clipPath id="clip0_2529_1056">
<rect width="200" height="42" fill="white"/>
</clipPath>
</defs>
</svg>
