<svg viewBox="0 0 200 42" fill="currentColor" xmlns="http://www.w3.org/2000/svg">
  <g clip-path="url(#a)">
    <path opacity=".32" fill-rule="evenodd" clip-rule="evenodd" d="M18.789 38.433c10.377 0 18.79-8.432 18.79-18.834 0-10.403-8.413-18.835-18.79-18.835C8.412.764 0 9.196 0 19.599c0 4.513 1.584 8.656 4.225 11.9V19.415c.034-2.653.675-5.11 1.959-7.312a14.062 14.062 0 0 1 5.183-5.17c2.206-1.272 4.663-1.89 7.313-1.89 2.703 0 5.197.625 7.424 1.916a14.098 14.098 0 0 1 5.206 5.216v.001c1.288 2.234 1.91 4.734 1.91 7.444 0 2.675-.604 5.151-1.854 7.375-1.23 2.188-2.921 3.945-5.057 5.225-2.172 1.306-4.607 1.933-7.237 1.933-2.296 0-4.444-.493-6.396-1.516l-.002-.001c-.13-.068-.258-.138-.384-.209v4.85a18.71 18.71 0 0 0 6.499 1.156Zm-8.85-2.215v-8.976a10.224 10.224 0 0 0 2.351 2.391c.457.335.948.64 1.474.915.685.36 1.404.641 2.157.845.99.27 2.041.404 3.151.404 2.245 0 4.254-.531 6.03-1.599a11.54 11.54 0 0 0 2.654-2.175 12.051 12.051 0 0 0 1.562-2.184c1.034-1.84 1.552-3.912 1.552-6.219 0-2.336-.532-4.422-1.595-6.265A11.745 11.745 0 0 0 24.927 9C23.092 7.934 21.01 7.4 18.68 7.4c-2.273 0-4.32.525-6.141 1.576a11.704 11.704 0 0 0-4.326 4.316c-1.062 1.822-1.609 3.874-1.637 6.153v14.467c1.03.884 2.158 1.659 3.363 2.306Zm4.24-24.548a8.558 8.558 0 0 0-3.146 3.263c-.759 1.372-1.137 2.933-1.137 4.687 0 1.722.378 3.277 1.137 4.663a8.348 8.348 0 0 0 3.146 3.266c1.34.787 2.84 1.183 4.5 1.183 1.69 0 3.205-.396 4.544-1.183a8.526 8.526 0 0 0 3.17-3.266c.77-1.386 1.156-2.941 1.156-4.663 0-1.754-.386-3.315-1.157-4.687a8.744 8.744 0 0 0-3.169-3.262c-1.34-.804-2.854-1.206-4.543-1.206-1.66 0-3.16.402-4.5 1.206Z"/>
    <path d="M26.392 24.284a8.529 8.529 0 0 1-3.169 3.266c-1.34.786-2.854 1.182-4.543 1.182-1.66 0-3.16-.396-4.5-1.182a8.35 8.35 0 0 1-3.147-3.266c-.759-1.386-1.137-2.942-1.137-4.664 0-1.753.378-3.315 1.137-4.686a8.558 8.558 0 0 1 3.146-3.263c1.34-.804 2.84-1.206 4.5-1.206 1.69 0 3.205.402 4.544 1.206a8.746 8.746 0 0 1 3.17 3.263c.77 1.371 1.156 2.933 1.156 4.686 0 1.722-.386 3.277-1.157 4.664Zm2.883-10.929A11.745 11.745 0 0 0 24.927 9C23.092 7.934 21.01 7.4 18.68 7.4c-2.273 0-4.32.526-6.141 1.576a11.704 11.704 0 0 0-4.326 4.316c-1.062 1.822-1.609 3.874-1.637 6.153v14.55a18.672 18.672 0 0 0 3.363 2.273v-9.026c.962 1.372 2.236 2.474 3.825 3.306 1.586.833 3.355 1.249 5.308 1.249 2.245 0 4.254-.531 6.03-1.599 1.777-1.064 3.183-2.52 4.216-4.359 1.034-1.84 1.552-3.912 1.552-6.219 0-2.336-.532-4.422-1.595-6.265ZM54.889 31.797c-2.36 0-4.45-.518-6.27-1.555a11.163 11.163 0 0 1-4.282-4.315c-1.035-1.84-1.552-3.942-1.552-6.307 0-2.394.488-4.504 1.464-6.33.976-1.824 2.323-3.262 4.042-4.314 1.719-1.051 3.7-1.577 5.943-1.577 2.213 0 4.143.504 5.79 1.511 1.645 1.008 2.92 2.402 3.823 4.184.902 1.781 1.354 3.81 1.354 6.088 0 .468-.146.84-.436 1.117-.292.278-.671.416-1.137.416h-18.57v-2.803h18.92l-1.88 1.357c.03-1.692-.276-3.211-.917-4.555-.641-1.343-1.55-2.394-2.73-3.154-1.18-.759-2.586-1.138-4.218-1.138-1.66 0-3.117.394-4.37 1.182-1.252.789-2.22 1.877-2.905 3.264-.685 1.387-1.027 2.972-1.027 4.752 0 1.782.386 3.358 1.159 4.73a8.546 8.546 0 0 0 3.167 3.242c1.34.788 2.884 1.183 4.632 1.183a9.703 9.703 0 0 0 3.168-.548c1.063-.365 1.915-.825 2.556-1.38a1.78 1.78 0 0 1 1.093-.416c.407-.014.757.095 1.048.329.379.35.575.73.59 1.138.015.41-.153.76-.502 1.052-.962.818-2.185 1.496-3.67 2.036-1.486.541-2.914.811-4.283.811ZM80.845 31.797c-2.36 0-4.45-.518-6.27-1.555a11.163 11.163 0 0 1-4.282-4.315c-1.035-1.84-1.552-3.942-1.552-6.307 0-2.394.488-4.504 1.464-6.33.976-1.824 2.323-3.262 4.042-4.314 1.718-1.051 3.699-1.577 5.942-1.577 2.214 0 4.144.504 5.79 1.511 1.646 1.008 2.92 2.402 3.824 4.184.902 1.781 1.354 3.81 1.354 6.088 0 .468-.146.84-.436 1.117-.292.278-.671.416-1.137.416h-18.57v-2.803h18.92l-1.88 1.357c.03-1.692-.276-3.211-.917-4.555-.641-1.343-1.551-2.394-2.73-3.154-1.18-.759-2.586-1.138-4.218-1.138-1.66 0-3.117.394-4.37 1.182-1.252.789-2.22 1.877-2.905 3.264-.685 1.387-1.027 2.972-1.027 4.752 0 1.782.386 3.358 1.158 4.73a8.546 8.546 0 0 0 3.168 3.242c1.34.788 2.884 1.183 4.632 1.183a9.704 9.704 0 0 0 3.168-.548c1.063-.365 1.915-.825 2.556-1.38a1.78 1.78 0 0 1 1.092-.416c.408-.014.758.095 1.05.329.378.35.574.73.589 1.138.015.41-.153.76-.502 1.052-.962.818-2.185 1.496-3.67 2.036-1.487.541-2.914.811-4.283.811ZM98.236 16.817c.087-1.81.56-3.43 1.42-4.862.858-1.43 1.98-2.555 3.364-3.373 1.384-.817 2.92-1.227 4.61-1.227 1.34 0 2.374.191 3.103.57.727.38 1.005.935.83 1.664-.117.439-.314.73-.59.877-.277.146-.612.204-1.005.174-.393-.028-.838-.058-1.333-.087-1.632-.146-3.08.022-4.348.504-1.267.482-2.272 1.22-3.015 2.212-.742.993-1.114 2.175-1.114 3.548h-1.922Zm.262 14.761c-.525 0-.933-.146-1.224-.438-.291-.291-.437-.7-.437-1.227V9.283c0-.526.146-.935.437-1.227.291-.29.7-.438 1.224-.438s.932.147 1.223.438c.291.292.437.701.437 1.227v20.63c0 .526-.146.936-.437 1.227-.291.292-.699.438-1.223.438ZM125.196 31.797c-1.719 0-3.423-.292-5.113-.877-1.689-.583-3.058-1.459-4.107-2.627-.321-.35-.452-.745-.393-1.183.058-.438.276-.817.655-1.139.408-.291.83-.409 1.268-.35.436.059.8.248 1.092.57.699.817 1.624 1.445 2.774 1.883 1.151.438 2.426.657 3.824.657 2.155 0 3.714-.373 4.675-1.117.962-.745 1.457-1.643 1.486-2.694 0-1.051-.496-1.92-1.486-2.606-.99-.686-2.621-1.22-4.893-1.6-2.943-.466-5.099-1.284-6.468-2.452-1.369-1.167-2.053-2.555-2.053-4.161 0-1.49.393-2.73 1.179-3.723.787-.992 1.836-1.737 3.147-2.234 1.311-.496 2.752-.745 4.325-.745 1.952 0 3.634.336 5.047 1.008 1.413.672 2.556 1.577 3.43 2.715.291.38.408.774.35 1.183-.059.41-.292.745-.699 1.008-.35.204-.75.27-1.202.197a1.949 1.949 0 0 1-1.157-.636c-.729-.846-1.574-1.467-2.535-1.861-.961-.395-2.069-.591-3.321-.591-1.602 0-2.884.328-3.845.985-.962.658-1.442 1.482-1.442 2.475 0 .672.181 1.255.546 1.752.364.497.99.935 1.879 1.314.888.38 2.134.7 3.736.964 2.185.35 3.911.869 5.178 1.555 1.267.686 2.17 1.489 2.709 2.409.539.92.808 1.92.808 3 0 1.373-.4 2.578-1.201 3.614-.802 1.037-1.909 1.847-3.321 2.43-1.413.585-3.037.877-4.872.877ZM159.932 9.806l-14.159 31.191c-.29.666-.711 1.003-1.264 1.003a2.22 2.22 0 0 1-.784-.172c-.994-.442-1.27-1.141-.836-2.105l4.345-9.607-9.762-20.264c-.204-.436-.231-.845-.086-1.228.145-.376.435-.666.876-.877.434-.198.842-.238 1.224-.106.375.132.665.416.869.851l8.518 18.008 8.13-17.961c.441-.937 1.138-1.195 2.099-.792.994.409 1.271 1.095.83 2.059ZM172.692 31.797a15.54 15.54 0 0 1-5.113-.877c-1.689-.583-3.059-1.459-4.107-2.627-.32-.35-.452-.745-.394-1.183.059-.438.277-.817.656-1.139.407-.291.831-.409 1.268-.35.436.059.8.248 1.093.57.697.817 1.622 1.445 2.774 1.883 1.151.438 2.424.657 3.823.657 2.156 0 3.714-.373 4.675-1.117.961-.745 1.457-1.643 1.486-2.694 0-1.051-.495-1.92-1.486-2.606-.99-.686-2.621-1.22-4.893-1.6-2.943-.466-5.098-1.284-6.468-2.452-1.37-1.167-2.053-2.555-2.053-4.161 0-1.49.393-2.73 1.179-3.723.787-.992 1.835-1.737 3.146-2.234 1.311-.496 2.754-.745 4.327-.745 1.951 0 3.633.336 5.046 1.008 1.412.672 2.557 1.577 3.43 2.715.292.38.408.774.349 1.183-.057.41-.29.745-.698 1.008-.35.204-.75.27-1.201.197a1.956 1.956 0 0 1-1.16-.636c-.727-.846-1.572-1.467-2.533-1.861-.961-.395-2.068-.591-3.321-.591-1.603 0-2.884.328-3.845.985-.961.658-1.442 1.482-1.442 2.475 0 .672.181 1.255.546 1.752.364.497.991.935 1.878 1.314.889.38 2.135.7 3.737.964 2.185.35 3.911.869 5.177 1.555 1.268.686 2.17 1.489 2.71 2.409.539.92.808 1.92.808 3 0 1.373-.4 2.578-1.202 3.614-.801 1.037-1.908 1.847-3.32 2.43-1.414.585-3.036.877-4.872.877ZM200 29.911c0 .502-.171.898-.52 1.208-.355.303-.79.462-1.316.462h-.916c-1.546 0-2.922-.37-4.126-1.096a7.888 7.888 0 0 1-2.865-3.002c-.698-1.274-1.046-2.725-1.046-4.362V11.43h-2.844c-.435 0-.803-.139-1.092-.416a1.366 1.366 0 0 1-.434-1.03c0-.435.144-.791.434-1.075.289-.277.657-.416 1.092-.416h2.844v-6.79c0-.495.151-.904.454-1.227.309-.317.711-.475 1.204-.475.495 0 .902.158 1.226.475.316.323.479.732.479 1.227v6.79h4.937c.435 0 .797.139 1.094.416.29.284.434.64.434 1.076 0 .409-.144.752-.434 1.029a1.539 1.539 0 0 1-1.094.416h-4.937V23.12c0 1.492.435 2.712 1.31 3.663.877.95 1.996 1.418 3.364 1.418h1.179c.468 0 .842.165 1.138.482.291.323.435.732.435 1.227Z"/>
  </g>
  <defs>
    <clipPath id="a">
      <path d="M0 0h200v42H0z"/>
    </clipPath>
  </defs>
</svg>
