<svg viewBox="0 0 37 14" fill="none" xmlns="http://www.w3.org/2000/svg">
  <path d="M32.667.2H4A3.8 3.8 0 0 0 .2 4v6A3.8 3.8 0 0 0 4 13.8h28.667a3.8 3.8 0 0 0 3.8-3.8V4a3.8 3.8 0 0 0-3.8-3.8Z" stroke="currentColor" stroke-width=".4"/>
  <path d="M8.168 10.09c-.364 0-.685-.09-.963-.275a1.86 1.86 0 0 1-.654-.784c-.157-.339-.236-.74-.236-1.201 0-.459.079-.857.236-1.194.157-.337.376-.597.656-.78.28-.185.605-.276.972-.276.284 0 .508.047.673.142.167.092.294.198.381.318.089.117.158.214.207.29h.057V4.182h.67V10H9.52v-.67h-.08a4.3 4.3 0 0 1-.21.3c-.09.12-.22.227-.39.322-.168.092-.392.139-.672.139Zm.09-.601c.27 0 .497-.07.682-.21.186-.143.327-.339.424-.589.096-.252.145-.542.145-.872 0-.326-.048-.61-.143-.855a1.245 1.245 0 0 0-.42-.574 1.119 1.119 0 0 0-.687-.207c-.285 0-.521.073-.71.219a1.31 1.31 0 0 0-.424.588 2.33 2.33 0 0 0-.14.83c0 .31.048.592.143.846.096.252.238.452.426.602.19.148.424.222.705.222Zm5.06.602c-.42 0-.783-.093-1.088-.278a1.87 1.87 0 0 1-.702-.785 2.685 2.685 0 0 1-.244-1.176c0-.447.082-.84.244-1.182a1.92 1.92 0 0 1 .688-.8c.295-.194.64-.29 1.034-.29.227 0 .452.037.673.113.222.076.424.2.605.37.182.168.327.392.435.67.108.278.162.621.162 1.028v.284h-3.364v-.58h2.682c0-.245-.05-.465-.147-.658a1.113 1.113 0 0 0-1.046-.625 1.2 1.2 0 0 0-.693.199c-.193.13-.342.3-.446.511-.104.21-.157.436-.157.676v.387c0 .33.057.608.171.838.116.227.276.4.48.52.205.117.442.176.713.176.176 0 .335-.025.478-.074.143-.051.267-.127.372-.227.104-.103.184-.23.241-.381l.648.182c-.068.22-.183.413-.344.58-.16.164-.36.293-.596.386a2.212 2.212 0 0 1-.799.136Zm6.262-4.455L17.967 10h-.682L15.67 5.636h.727l1.205 3.478h.045l1.205-3.478h.727Zm1.556 1.739V10h-.67V5.636h.647v.682h.057c.102-.221.257-.4.466-.534.208-.136.477-.204.806-.204.296 0 .554.06.776.181.222.12.394.301.517.546.123.242.185.55.185.92V10h-.67V7.273c0-.343-.09-.61-.268-.801-.178-.194-.422-.29-.733-.29a1.17 1.17 0 0 0-.574.139.997.997 0 0 0-.395.406 1.341 1.341 0 0 0-.144.648Zm5.838 2.716c-.42 0-.783-.093-1.088-.278a1.868 1.868 0 0 1-.701-.785 2.671 2.671 0 0 1-.245-1.176c0-.447.082-.84.245-1.182.164-.342.394-.61.687-.8.296-.194.64-.29 1.034-.29.228 0 .452.037.674.113.221.076.423.2.605.37.181.168.326.392.434.67.108.278.162.621.162 1.028v.284h-3.363v-.58h2.681c0-.245-.049-.465-.147-.658a1.113 1.113 0 0 0-.415-.458 1.161 1.161 0 0 0-.63-.167 1.2 1.2 0 0 0-.694.199c-.193.13-.342.3-.446.511-.104.21-.156.436-.156.676v.387c0 .33.057.608.17.838.116.227.276.4.48.52.205.117.443.176.713.176.177 0 .336-.025.478-.074.144-.051.268-.127.372-.227.104-.103.184-.23.241-.381l.648.182c-.068.22-.183.413-.344.58-.16.164-.36.293-.596.386a2.211 2.211 0 0 1-.799.136ZM31.7 5.636v.569h-2.262v-.569H31.7Zm-1.602-1.045h.67V8.75c0 .19.027.331.082.426a.427.427 0 0 0 .216.188c.09.03.183.045.282.045.073 0 .134-.004.181-.011l.114-.023.136.602a1.405 1.405 0 0 1-.5.08c-.189 0-.375-.04-.556-.122a1.106 1.106 0 0 1-.45-.373c-.117-.166-.175-.376-.175-.63V4.59Z" fill="currentColor"/>
</svg>
