<svg xmlns="http://www.w3.org/2000/svg" viewBox="0 0 134 28" fill="currentColor">
  <g fill="#000">
    <path opacity=".32" d="M13.095 25.622c6.9 0 12.494-5.622 12.494-12.556C25.59 6.13 19.995.509 13.095.509 6.195.51.6 6.131.6 13.066c0 3.009 1.053 5.77 2.81 7.934v-8.057c.022-1.769.449-3.406 1.302-4.874A9.36 9.36 0 0 1 8.16 4.621c1.467-.848 3.101-1.26 4.863-1.26 1.798 0 3.457.416 4.937 1.278a9.388 9.388 0 0 1 3.462 3.477c.857 1.49 1.27 3.156 1.27 4.963 0 1.783-.402 3.434-1.232 4.917a9.306 9.306 0 0 1-3.363 3.483c-1.445.87-3.064 1.289-4.813 1.289-1.527 0-2.956-.329-4.254-1.011a9.703 9.703 0 0 1-.256-.14v3.233c1.347.499 2.803.771 4.322.771ZM7.21 24.145v-5.983a6.807 6.807 0 0 0 1.563 1.594c.304.223.63.426.98.61.456.239.933.427 1.434.563.66.18 1.358.269 2.096.269 1.492 0 2.829-.354 4.01-1.066a7.682 7.682 0 0 0 1.765-1.45 8.04 8.04 0 0 0 1.039-1.456c.687-1.226 1.031-2.608 1.031-4.146 0-1.557-.354-2.948-1.06-4.177A7.82 7.82 0 0 0 17.176 6c-1.22-.71-2.604-1.066-4.154-1.066-1.512 0-2.873.35-4.084 1.05a7.793 7.793 0 0 0-2.876 2.878c-.707 1.215-1.07 2.583-1.09 4.102v9.645c.686.59 1.436 1.106 2.238 1.537ZM10.03 7.78a5.7 5.7 0 0 0-2.093 2.176c-.505.914-.756 1.955-.756 3.124 0 1.148.251 2.185.756 3.109a5.56 5.56 0 0 0 2.092 2.177c.891.524 1.889.788 2.993.788 1.123 0 2.13-.264 3.022-.788a5.678 5.678 0 0 0 2.107-2.177c.512-.924.77-1.961.77-3.109 0-1.169-.258-2.21-.77-3.124a5.824 5.824 0 0 0-2.107-2.176c-.892-.535-1.899-.803-3.022-.803-1.104 0-2.102.268-2.993.803Z"/>
    <path d="M18.151 16.19a5.68 5.68 0 0 1-2.107 2.176c-.892.524-1.899.789-3.022.789-1.104 0-2.102-.265-2.993-.789a5.561 5.561 0 0 1-2.092-2.177c-.505-.924-.756-1.961-.756-3.109 0-1.169.251-2.21.756-3.124a5.7 5.7 0 0 1 5.085-2.98c1.123 0 2.13.269 3.022.804a5.824 5.824 0 0 1 2.107 2.176c.512.914.77 1.955.77 3.124 0 1.148-.258 2.185-.77 3.11Zm1.917-7.286a7.82 7.82 0 0 0-2.892-2.905c-1.22-.71-2.604-1.065-4.154-1.065-1.512 0-2.873.35-4.084 1.05A7.793 7.793 0 0 0 6.062 8.86c-.707 1.215-1.07 2.583-1.09 4.102v9.7c.686.584 1.436 1.091 2.238 1.516v-6.017c.64.914 1.487 1.649 2.543 2.204 1.055.555 2.232.832 3.53.832 1.492 0 2.829-.354 4.01-1.066a7.74 7.74 0 0 0 2.804-2.906c.687-1.226 1.031-2.608 1.031-4.146 0-1.557-.354-2.948-1.06-4.176ZM37.101 21.198c-1.569 0-2.96-.345-4.17-1.036a7.432 7.432 0 0 1-2.847-2.877c-.688-1.226-1.032-2.628-1.032-4.205 0-1.596.324-3.003.974-4.22a7.38 7.38 0 0 1 2.687-2.876c1.143-.7 2.46-1.051 3.952-1.051 1.472 0 2.756.336 3.85 1.007 1.095.672 1.942 1.602 2.543 2.79.6 1.187.9 2.54.9 4.058 0 .312-.096.56-.29.745-.194.185-.446.277-.755.277h-12.35v-1.869h12.582l-1.25.905c.02-1.128-.184-2.14-.61-3.036-.426-.896-1.031-1.596-1.816-2.103-.784-.506-1.719-.759-2.804-.759-1.104 0-2.073.263-2.905.788-.834.526-1.478 1.251-1.933 2.176-.455.925-.683 1.981-.683 3.168 0 1.188.257 2.24.77 3.154a5.69 5.69 0 0 0 2.107 2.16c.891.527 1.918.79 3.08.79.697 0 1.4-.122 2.107-.366.707-.243 1.273-.55 1.7-.92.213-.175.455-.267.726-.277.271-.01.504.064.698.22.251.233.382.486.392.758.01.273-.102.507-.334.701-.64.546-1.453.998-2.441 1.358-.988.36-1.938.54-2.848.54ZM54.362 21.198c-1.57 0-2.96-.345-4.17-1.036a7.432 7.432 0 0 1-2.848-2.877c-.687-1.226-1.031-2.628-1.031-4.205 0-1.596.324-3.003.973-4.22a7.38 7.38 0 0 1 2.688-2.876c1.143-.7 2.46-1.051 3.952-1.051 1.472 0 2.756.336 3.85 1.007 1.094.672 1.942 1.602 2.543 2.79.6 1.187.9 2.54.9 4.058 0 .312-.096.56-.29.745-.194.185-.446.277-.756.277h-12.35v-1.869h12.583l-1.25.905c.02-1.128-.184-2.14-.61-3.036-.426-.896-1.031-1.596-1.816-2.103-.784-.506-1.72-.759-2.804-.759-1.104 0-2.073.263-2.906.788-.833.526-1.477 1.251-1.932 2.176-.456.925-.683 1.981-.683 3.168 0 1.188.256 2.24.77 3.154a5.691 5.691 0 0 0 2.107 2.16c.89.527 1.918.79 3.08.79.697 0 1.4-.122 2.107-.366.706-.243 1.273-.55 1.7-.92.212-.175.454-.267.726-.277.27-.01.503.064.697.22.252.233.383.486.392.758.01.273-.101.507-.334.701-.639.546-1.452.998-2.44 1.358-.988.36-1.938.54-2.848.54ZM65.927 11.211c.058-1.206.372-2.287.944-3.24a6.36 6.36 0 0 1 2.238-2.25c.92-.544 1.941-.817 3.065-.817.89 0 1.579.127 2.063.38.484.253.669.623.552 1.11-.077.291-.208.486-.392.583a1.211 1.211 0 0 1-.668.117 72.249 72.249 0 0 0-.887-.059c-1.085-.097-2.048.015-2.891.336-.842.322-1.51.814-2.005 1.475-.494.662-.74 1.45-.74 2.365h-1.28Zm.174 9.841c-.349 0-.62-.097-.814-.292-.194-.194-.29-.467-.29-.817V6.189c0-.35.097-.623.29-.818.194-.194.465-.292.814-.292.349 0 .62.098.814.292.193.195.29.468.29.818v13.754c0 .35-.097.623-.29.817-.194.195-.465.292-.814.292ZM83.855 21.198c-1.143 0-2.276-.194-3.4-.584-1.123-.39-2.034-.973-2.731-1.752a.94.94 0 0 1-.261-.788c.038-.292.183-.545.435-.76.271-.194.553-.272.843-.233.29.04.533.165.727.38.464.545 1.08.963 1.845 1.255.765.292 1.612.438 2.542.438 1.433 0 2.47-.248 3.11-.745.639-.496.968-1.095.987-1.795 0-.701-.33-1.28-.987-1.738-.66-.457-1.744-.813-3.255-1.066-1.957-.311-3.39-.856-4.3-1.635-.911-.778-1.366-1.703-1.366-2.774 0-.993.261-1.82.784-2.482.523-.662 1.22-1.158 2.093-1.49.871-.33 1.83-.496 2.876-.496 1.298 0 2.416.224 3.356.672.94.448 1.7 1.051 2.281 1.81.194.254.272.516.233.788-.04.274-.194.497-.465.672-.233.137-.5.18-.8.132-.3-.049-.556-.19-.77-.424a4.427 4.427 0 0 0-1.684-1.24c-.64-.264-1.376-.395-2.209-.395-1.066 0-1.918.219-2.557.657-.64.438-.959.988-.959 1.65 0 .448.12.837.363 1.168.242.331.659.623 1.25.876.59.253 1.419.467 2.484.642 1.453.234 2.6.58 3.443 1.037.843.457 1.443.993 1.802 1.606.358.613.538 1.28.538 2 0 .916-.267 1.719-.8 2.41-.532.69-1.269 1.23-2.208 1.62-.94.39-2.02.584-3.24.584ZM106.955 6.537l-9.416 20.794c-.193.445-.473.669-.84.669-.154 0-.33-.04-.522-.114-.66-.295-.845-.761-.556-1.404l2.89-6.405-6.492-13.51c-.136-.29-.153-.562-.057-.817.096-.251.289-.445.582-.585.289-.132.56-.159.814-.07.25.087.442.276.578.567L99.6 17.667l5.407-11.975c.293-.624.757-.796 1.396-.527.661.272.845.73.552 1.372ZM115.44 21.198c-1.143 0-2.277-.194-3.4-.584-1.123-.39-2.034-.973-2.731-1.752a.938.938 0 0 1-.262-.788c.039-.292.184-.545.436-.76.271-.194.553-.272.843-.233.29.04.532.165.727.38.464.545 1.079.963 1.845 1.255.765.292 1.612.438 2.542.438 1.434 0 2.47-.248 3.109-.745.639-.496.969-1.095.988-1.795 0-.701-.329-1.28-.988-1.738-.658-.457-1.743-.813-3.254-1.066-1.957-.311-3.39-.856-4.301-1.635-.911-.778-1.365-1.703-1.365-2.774 0-.993.261-1.82.784-2.482.523-.662 1.22-1.158 2.092-1.49.872-.33 1.831-.496 2.877-.496 1.297 0 2.416.224 3.356.672.939.448 1.7 1.051 2.281 1.81.194.254.271.516.232.788-.038.274-.193.497-.464.672-.233.137-.499.18-.799.132a1.299 1.299 0 0 1-.771-.424 4.423 4.423 0 0 0-1.685-1.24c-.639-.264-1.375-.395-2.208-.395-1.066 0-1.918.219-2.557.657-.639.438-.959.988-.959 1.65 0 .448.12.837.363 1.168.242.331.659.623 1.249.876.591.253 1.42.467 2.485.642 1.453.234 2.601.58 3.443 1.037.843.457 1.443.993 1.802 1.606.358.613.537 1.28.537 2 0 .916-.266 1.719-.799 2.41-.533.69-1.269 1.23-2.208 1.62-.94.39-2.019.584-3.24.584ZM133.6 19.94c0 .335-.114.599-.346.806a1.296 1.296 0 0 1-.875.308h-.609c-1.028 0-1.943-.247-2.744-.73a5.251 5.251 0 0 1-1.905-2.002c-.464-.85-.696-1.817-.696-2.908V7.62h-1.891a1.01 1.01 0 0 1-.726-.277.911.911 0 0 1-.289-.686c0-.29.096-.528.289-.717a1.01 1.01 0 0 1 .726-.278h1.891V1.135c0-.33.101-.603.302-.818.206-.212.473-.317.801-.317.329 0 .6.105.815.317.21.215.319.488.319.818V5.66h3.283c.289 0 .53.093.727.278.193.189.289.426.289.717a.911.911 0 0 1-.289.686 1.02 1.02 0 0 1-.727.277h-3.283v7.795c0 .994.289 1.808.871 2.442.583.633 1.327.945 2.237.945h.784c.311 0 .56.11.757.322.193.215.289.488.289.818Z"/>
  </g>
</svg>
