<svg viewBox="0 0 37 15" fill="none" xmlns="http://www.w3.org/2000/svg">
  <path d="M7.59 6.336v.568H5.327v-.568H7.59ZM5.986 5.291h.67V9.45c0 .19.028.331.083.426a.427.427 0 0 0 .216.188c.089.03.183.045.281.045.074 0 .135-.004.182-.011l.114-.023.136.602a1.404 1.404 0 0 1-.5.08c-.19 0-.375-.041-.557-.122a1.106 1.106 0 0 1-.449-.373c-.117-.166-.176-.376-.176-.63V5.29Zm4.394 5.5c-.42 0-.783-.093-1.088-.279a1.869 1.869 0 0 1-.702-.784c-.163-.337-.244-.729-.244-1.176 0-.447.081-.84.244-1.182.165-.342.394-.61.687-.8.296-.194.64-.29 1.034-.29.228 0 .452.037.674.113.221.076.423.199.605.37.182.168.327.391.435.67.107.278.162.621.162 1.028v.284H8.823v-.58h2.682c0-.245-.05-.465-.148-.658a1.114 1.114 0 0 0-1.046-.625c-.266 0-.498.066-.693.199-.193.13-.342.3-.446.511-.104.21-.156.436-.156.676v.386c0 .33.057.61.17.839.116.227.276.4.48.52.205.117.443.176.714.176.176 0 .335-.025.477-.074.144-.051.268-.127.372-.228.104-.102.185-.229.242-.38l.647.182c-.068.22-.182.412-.343.58-.161.164-.36.293-.597.386-.237.09-.503.136-.798.136Zm5.917-3.477-.602.17a1.118 1.118 0 0 0-.168-.293.814.814 0 0 0-.295-.238 1.073 1.073 0 0 0-.48-.094c-.267 0-.49.062-.668.185-.176.12-.264.275-.264.463 0 .166.06.298.182.395.121.096.31.177.568.241l.648.16c.39.094.68.239.872.434.191.193.287.442.287.747 0 .25-.072.474-.216.67a1.43 1.43 0 0 1-.597.466 2.18 2.18 0 0 1-.892.17c-.445 0-.813-.096-1.105-.289-.291-.193-.476-.475-.554-.846l.637-.16c.06.235.175.411.343.529.17.117.393.176.668.176.312 0 .56-.066.744-.199.186-.134.279-.295.279-.483a.508.508 0 0 0-.16-.38c-.106-.105-.268-.182-.488-.233l-.727-.171c-.4-.095-.694-.241-.881-.44a1.066 1.066 0 0 1-.278-.753c0-.246.069-.464.207-.654.14-.189.33-.338.571-.446.242-.108.517-.162.824-.162.432 0 .77.095 1.017.285.248.189.424.439.528.75Zm2.987-.978v.568h-2.262v-.568h2.262Zm-1.602-1.045h.67V9.45c0 .19.027.331.082.426a.427.427 0 0 0 .216.188c.09.03.183.045.282.045.073 0 .134-.004.181-.011l.114-.023.136.602a1.404 1.404 0 0 1-.5.08c-.189 0-.375-.041-.556-.122a1.106 1.106 0 0 1-.45-.373c-.117-.166-.175-.376-.175-.63V5.29Zm3.28 2.784V10.7h-.67V6.336h.648v.682h.057c.102-.221.257-.4.466-.534.208-.136.477-.205.807-.205.295 0 .554.061.775.182.222.12.394.301.517.546.123.242.185.549.185.92V10.7h-.67V7.973c0-.343-.09-.61-.268-.801-.178-.194-.422-.29-.733-.29a1.17 1.17 0 0 0-.573.139.996.996 0 0 0-.395.406 1.341 1.341 0 0 0-.145.648Zm5.84 2.716c-.42 0-.784-.093-1.088-.279a1.87 1.87 0 0 1-.702-.784c-.163-.337-.245-.729-.245-1.176 0-.447.082-.84.245-1.182.165-.342.394-.61.687-.8.296-.194.64-.29 1.034-.29.228 0 .452.037.674.113.221.076.423.199.605.37.182.168.326.391.434.67.108.278.162.621.162 1.028v.284h-3.363v-.58h2.682c0-.245-.05-.465-.148-.658a1.113 1.113 0 0 0-1.046-.625c-.267 0-.498.066-.693.199-.193.13-.342.3-.446.511-.104.21-.156.436-.156.676v.386c0 .33.057.61.17.839.116.227.276.4.48.52.205.117.443.176.714.176.176 0 .335-.025.477-.074.144-.051.268-.127.372-.228.104-.102.185-.229.241-.38l.648.182c-.068.22-.183.412-.344.58-.16.164-.36.293-.596.386-.237.09-.503.136-.798.136Zm4.724-4.455v.568h-2.261v-.568h2.261Zm-1.602-1.045h.67V9.45c0 .19.028.331.083.426a.427.427 0 0 0 .215.188c.09.03.183.045.282.045.074 0 .134-.004.181-.011l.114-.023.137.602a1.404 1.404 0 0 1-.5.08c-.19 0-.376-.041-.557-.122a1.106 1.106 0 0 1-.45-.373c-.117-.166-.175-.376-.175-.63V5.29Z" fill="currentColor"/>
  <path d="M32.78 1H4.72a3.73 3.73 0 0 0-2.63 1.084A3.691 3.691 0 0 0 1 4.701v5.843a3.684 3.684 0 0 0 1.09 2.617 3.73 3.73 0 0 0 2.63 1.084h28.06a3.736 3.736 0 0 0 2.63-1.084 3.7 3.7 0 0 0 1.09-2.617V4.701c0-.982-.392-1.923-1.09-2.617A3.729 3.729 0 0 0 32.78 1Z" stroke="currentColor" stroke-width=".4"/>
</svg>
